<?xml version="1.0" encoding="UTF-8"?>
<svg width="240" height="87" xmlns="http://www.w3.org/2000/svg">
<!--Generator: Sketch 52.5 (67469) - http://www.bohemiancoding.com/sketch-->
  <g fill="#525B5A" fill-rule="evenodd" opacity=".6">
    <path d="M51.6 84.14a1.36 1.36 0 0 0-1.9 0 1.36 1.36 0 0 0 0 1.9 1.36 1.36 0 0 0 1.9 0 1.36 1.36 0 0 0 0-1.9zM76.07 72.77c-.8 0-1.43.64-1.43 1.43a4.83 4.83 0 0 1-4.83 4.83 1.43 1.43 0 0 0 0 2.86 7.7 7.7 0 0 0 7.69-7.69c0-.79-.64-1.43-1.43-1.43z"/>
    <path d="M86.41 13.17c-6.63 0-12.02 5.4-12.02 12.02v17.18c0 6.14 4.63 11.22 10.59 11.93v12.54h-5.15A12.42 12.42 0 0 0 66.53 62l-4.78-12.2h5.82a.77.77 0 0 1 .63 1.24.76.76 0 0 1-.63.31h-1.46a1.43 1.43 0 0 0 0 2.87h1.46a3.6 3.6 0 0 0 2.94-1.5 3.63 3.63 0 0 0-2.94-5.77h-7.92a1.43 1.43 0 0 0-1.33 1.95l2.69 6.86H49.1l-1.07-2.46-.41-1.04c-.21-.54-.74-.9-1.33-.9h-6.23a3.63 3.63 0 1 0 0 7.27h4.75l-2.3 3.98a12.44 12.44 0 0 0-12.86 20.97h-3.07a1.43 1.43 0 0 0 0 2.87h11c6.36 0 11.63-4.82 12.34-11h5.6a1.43 1.43 0 0 0 1.31-2l-6.47-14.82h11.76l1.73 4.42a12.44 12.44 0 0 0-2.1 20.53H56.7a1.43 1.43 0 0 0 0 2.87h13A12.44 12.44 0 0 0 81.34 69.7h10.27a1.43 1.43 0 0 0 0-2.86h-3.77V54.3a12.04 12.04 0 0 0 10.6-11.93V25.19c0-6.63-5.4-12.02-12.03-12.02zm-46.34 42.6c-.32 0-.6-.2-.72-.5-.12-.33 0-.59.09-.72a.76.76 0 0 1 .63-.33h5.25l.6 1.54h-5.85zm-2.49 27.81a9.58 9.58 0 0 1 0-19.13c1.23 0 2.41.24 3.5.67l-4.74 8.18a1.43 1.43 0 0 0 1.24 2.15h4.62a4.84 4.84 0 0 1-4.62 3.4 1.43 1.43 0 0 0 0 2.86 7.7 7.7 0 0 0 7.56-6.26h1.9a9.58 9.58 0 0 1-9.46 8.13zm2.48-11l3.49-6.03a9.57 9.57 0 0 1 3.5 6.04h-6.99zm13.28 0h-3.41a12.43 12.43 0 0 0-4.94-8.53l2.63-4.55 5.72 13.09zm16.35 11a9.58 9.58 0 0 1-4.78-17.84l3.45 8.8a1.43 1.43 0 1 0 2.66-1.04l-3.44-8.8a9.55 9.55 0 0 1 11.68 9.32c0 5.27-4.3 9.56-9.57 9.56zm25.88-41.21a9.17 9.17 0 0 1-7.73 9.04v-5.95l3.82-4.07a1.43 1.43 0 0 0-2.1-1.96l-1.72 1.84v-4.6l3.82-4.07a1.43 1.43 0 0 0-2.1-1.96l-1.72 1.84v-2.5a1.43 1.43 0 0 0-2.86 0v6.45l-1.47-1.57a1.43 1.43 0 0 0-2.1 1.95l3.57 3.8v10.8a9.17 9.17 0 0 1-7.73-9.04V25.19a9.17 9.17 0 0 1 18.32 0v17.18z" fill-rule="nonzero"/>
    <path d="M59.35 33.06h-2.37c.56-1.16.87-2.45.87-3.77 0-4.7-3.77-8.52-8.4-8.52A8.41 8.41 0 0 0 41.7 26a6.05 6.05 0 0 0-2.65-.62 6.18 6.18 0 0 0-6.13 6.22c0 1.39.44 2.7 1.28 3.8.27.35.69.56 1.13.56h24.02c.8 0 1.43-.65 1.43-1.45 0-.8-.64-1.45-1.43-1.45zm-5.8 0H36.12a3.33 3.33 0 0 1 2.94-4.77c.92 0 1.8.4 2.42 1.1.38.42.96.58 1.5.4.53-.16.92-.64.98-1.2a5.57 5.57 0 0 1 5.5-4.92 5.59 5.59 0 0 1 5.54 5.62c0 1.4-.52 2.74-1.43 3.77zM203.11 66.27c0-.8-.64-1.44-1.44-1.44h-1.44a1.44 1.44 0 1 0-2.88 0H174.3a1.44 1.44 0 0 0-2.88 0h-1.44a1.44 1.44 0 0 0 0 2.89h1.44v4.32h-1.44a1.44 1.44 0 1 0 0 2.88h1.44v1.44h-1.44a1.44 1.44 0 0 0 0 2.88h1.44v4.32h-24.5V71.64a14.24 14.24 0 0 0 6.99 1.84 14.84 14.84 0 0 0 14.63-15.02 15 15 0 0 0-8.2-13.49 13.15 13.15 0 0 0 2.54-7.84 13 13 0 0 0-10.41-12.85 11.14 11.14 0 0 0-9.87-15.75l-.12.01a10.08 10.08 0 0 0-19.96.23 7.2 7.2 0 0 0 1.35 14.28h8.4c.13.42.28.82.46 1.22a13.01 13.01 0 0 0-10.41 12.86c-.01 2.82.88 5.57 2.55 7.84a15 15 0 0 0-8.2 13.5 14.84 14.84 0 0 0 14.63 15c2.44 0 4.85-.63 6.98-1.83v11.92h-20.17a1.44 1.44 0 1 0 0 2.89h83.56a1.44 1.44 0 1 0 0-2.89h-1.44v-4.32h1.44a1.44 1.44 0 1 0 0-2.88h-1.44v-1.44h1.44a1.44 1.44 0 1 0 0-2.88h-1.44v-4.32h1.44c.8 0 1.44-.65 1.44-1.45zm-71.37-46.6c0 .17.02.33.03.5h-7.9a4.32 4.32 0 1 1 0-8.64 1.44 1.44 0 0 0 1.44-1.44 7.19 7.19 0 0 1 14.3-1.12 11.11 11.11 0 0 0-7.87 10.7zm12.3 63.9h-2.88V69.52c.52-.48 1-1 1.44-1.55.44.55.93 1.07 1.44 1.55v14.03zm.18-18.31l9.49-9.5a1.44 1.44 0 0 0-2.04-2.03l-7.63 7.63V46.7l6.78-6.78a1.44 1.44 0 0 0-2.03-2.04l-4.75 4.75v-6.61a1.44 1.44 0 0 0-2.88 0v6.6l-4.74-4.74a1.44 1.44 0 0 0-2.04 2.04l6.78 6.78v14.66l-7.62-7.63a1.44 1.44 0 0 0-2.04 2.04l9.49 9.49a11.54 11.54 0 0 1-9.7 5.34 11.96 11.96 0 0 1-11.74-12.14 12.06 12.06 0 0 1 8.17-11.55 1.44 1.44 0 0 0 .56-2.4 10.27 10.27 0 0 1-3.08-7.38 10.03 10.03 0 0 1 9.75-10.2c.6.05 1.16-.26 1.45-.79.24-.48.2-1.06-.13-1.5a8.35 8.35 0 0 1-1.65-4.97 8.13 8.13 0 0 1 7.98-8.25 8.13 8.13 0 0 1 7.98 8.25c0 1.8-.58 3.53-1.65 4.97a1.43 1.43 0 0 0-.1 1.5c.25.49.76.8 1.3.8 5.54.1 9.96 4.65 9.87 10.19.02 2.77-1.1 5.44-3.07 7.38a1.44 1.44 0 0 0 .56 2.4 12.2 12.2 0 0 1-3.58 23.69 11.53 11.53 0 0 1-9.7-5.34zm53.13 18.3H174.3v-4.32h23.05v4.32zm0-7.2H174.3v-1.44h23.05v1.44zm0-4.32H174.3v-4.32h23.05v4.32zM178.74 36.05h17.3a7.2 7.2 0 0 0 1.35-14.28 10.09 10.09 0 0 0-20 0 7.2 7.2 0 0 0 1.35 14.28zm0-11.52a1.44 1.44 0 0 0 1.44-1.44 7.2 7.2 0 0 1 14.41 0 1.44 1.44 0 0 0 1.44 1.44 4.32 4.32 0 0 1 0 8.64h-17.29a4.32 4.32 0 0 1 0-8.64z" fill-rule="nonzero"/>
    <rect fill-rule="nonzero" x="188.42" y="83.57" width="51.33" height="2.87" rx="1.44"/>
    <rect fill-rule="nonzero" y="83.57" width="123.42" height="2.87" rx="1.44"/>
    <path fill-rule="nonzero" d="M84.93 53.18h2.87v31.91h-2.87z"/>
  </g>
</svg>
