<?xml version="1.0" encoding="iso-8859-1"?>
<!-- Generator: Adobe Illustrator 16.0.0, SVG Export Plug-In . SVG Version: 6.00 Build 0)  -->
<!DOCTYPE svg PUBLIC "-//W3C//DTD SVG 1.1//EN" "http://www.w3.org/Graphics/SVG/1.1/DTD/svg11.dtd">
<svg version="1.1" id="Capa_1" xmlns="http://www.w3.org/2000/svg" xmlns:xlink="http://www.w3.org/1999/xlink" x="0px" y="0px"
	 width="591.443px" height="591.442px" viewBox="0 0 591.443 591.442" style="enable-background:new 0 0 591.443 591.442;"
	 xml:space="preserve">
<g>
	<g>
		<path d="M552.963,141.235c-1.216-11.123-4.438-21.653-9.212-31.277c-11.983-47.3-56.202-73.546-101.4-66.655
			c-13.321-17.128-31.343-30.604-54.023-38.499c-35.811-12.464-74.097,0.282-97.528,27.234
			c-66.047-53.885-167.9-27.185-196.068,59.629c-1.383,4.264-3.733,8.229-4.937,12.526c-0.041,0.151-0.082,0.302-0.118,0.457
			c-28.654,7.438-57.079,30.89-59.421,60.062c-0.146,1.836-0.188,3.611-0.179,5.357c-14.953,38.638-12.983,76.316,10.208,112.727
			c24.194,37.993,59.127,56.609,102.522,57.066c41.518,56.187,79.58,114.824,114.174,175.571
			c-1.579,9.498-4.827,19.837-9.318,32.403c-10.127,28.331-0.641,42.574,29.494,43.48c4.537,0.135,9.111,0.249,13.623-0.139
			c17.471-1.514,26.643-14.55,21.828-31.363c-3.228-11.272-8.878-22.122-10.396-33.566c-0.074-0.562,0.008-3.227,0.314-7.507
			c17.009-32.248,54.989-51.232,76.332-80.515c13.864-19.021,23.827-40.176,29.604-62.429c13.48-0.889,27.079-5.047,40.816-13.745
			c20.73-13.129,32.722-35.125,35.729-58.475c2.697-5.635,6.124-8.27,13.301-9.375c41.146-6.34,66.431-32.803,71.755-73.877
			c3.619-27.936-4.415-52.848-17.079-76.985C553.017,142.663,553.045,141.985,552.963,141.235z M181.337,351.619
			c11.2,10.453,22.211,21.135,31.677,33.008c5.426,6.805,9.833,20.448,14.063,34.279
			C212.357,396.124,197.074,373.713,181.337,351.619z M280.379,445.39c-8.535,1.343-28.368-42.057-35.247-56.096
			c21.489-1.371,43.167-2.75,66.083-4.215c-0.514,1.502-0.819,3.284-1.673,4.754C302.203,402.456,297.682,442.669,280.379,445.39z
			 M347.23,437.846c-12.313,13.231-26.406,24.468-39.201,36.594c5.472-32.484,15.569-74.125,33.403-106.32
			c2.057-3.713,4.464-5.762,7.332-6.695c11.493,5.65,23.076,10.041,34.745,12.48C376.761,397.372,364.623,419.159,347.23,437.846z"
			/>
	</g>
</g>
<g>
</g>
<g>
</g>
<g>
</g>
<g>
</g>
<g>
</g>
<g>
</g>
<g>
</g>
<g>
</g>
<g>
</g>
<g>
</g>
<g>
</g>
<g>
</g>
<g>
</g>
<g>
</g>
<g>
</g>
</svg>
