<?xml version="1.0" encoding="iso-8859-1"?>
<!-- Generator: Adobe Illustrator 16.0.0, SVG Export Plug-In . SVG Version: 6.00 Build 0)  -->
<!DOCTYPE svg PUBLIC "-//W3C//DTD SVG 1.1//EN" "http://www.w3.org/Graphics/SVG/1.1/DTD/svg11.dtd">
<svg version="1.1" id="Capa_1" xmlns="http://www.w3.org/2000/svg" xmlns:xlink="http://www.w3.org/1999/xlink" x="0px" y="0px"
	 width="589.977px" height="589.977px" viewBox="0 0 589.977 589.977" style="enable-background:new 0 0 589.977 589.977;"
	 xml:space="preserve">
<g>
	<g>
		<path d="M104.883,190.107c0,26.5,16.271,49.185,39.36,58.65c0.853,2.191,1.747,4.357,2.689,6.503
			c-9.625,23.015-5.1,50.547,13.631,69.278c7.886,7.887,17.34,13.225,27.352,16.076c6.022,16.051,12.603,29.746,20.013,41.588
			c2.333,3.725,4.765,7.111,7.12,10.387c3.749,5.219,7.291,10.143,9.078,14.762c2.061,5.324,2,15.227,1.955,23.182
			c-0.008,1.314-0.017,2.604-0.017,3.852v33.951v92.893c0,13.844,11.232,28.748,35.892,28.748c7.332,0,20.816-1.461,28.74-11.24
			c4.476-5.529,6.206-12.645,4.745-19.523c-5.116-24.088-1.86-71.514,9.09-90.479c8.141-14.092,19.09-26.471,30.682-39.576
			c6.447-7.291,13.113-14.826,19.449-22.863c15.594-19.785,27.826-41.143,36.545-63.584c13.953-1.443,27.516-7.486,38.209-18.18
			c18.732-18.73,23.256-46.263,13.631-69.278c0.943-2.142,1.836-4.312,2.689-6.503c23.088-9.461,39.359-32.15,39.359-58.65
			c0-26.5-16.271-49.185-39.359-58.65c-0.854-2.191-1.746-4.357-2.689-6.503c9.625-23.015,5.102-50.547-13.631-69.278
			c-18.73-18.731-46.264-23.256-69.277-13.631c-2.143-0.942-4.312-1.836-6.504-2.688C344.176,16.267,321.49,0,294.991,0
			s-49.185,16.271-58.65,39.36c-2.191,0.853-4.357,1.746-6.504,2.688c-23.015-9.625-50.547-5.1-69.278,13.631
			c-18.731,18.731-23.256,46.263-13.631,69.278c-0.946,2.142-1.836,4.313-2.688,6.503
			C121.15,140.923,104.883,163.608,104.883,190.107z M275.488,563.451c0.808,3.807-6.198,6.129-13.529,6.129
			c-7.573,0-15.492-2.477-15.492-8.348c0-26.883,0-66.01,0-92.893c0-11.318,0-22.633,0-33.951c0-10.734,0.583-24.328-3.313-34.398
			c-4.092-10.578-11.979-19.105-17.932-28.611c-5.659-9.043-10.331-18.691-14.447-28.568c-2.521-6.047-4.88-12.154-6.989-18.32
			c-10.775-31.485-13.378-65.953-9.233-98.833c1.032-8.181,8.054-12.305,14.537-12.305c6.442,0,12.35,4.076,11.314,12.305
			c-4.411,34.99-0.331,69.017,11.914,102.074c3.713,10.023,8.625,19.562,14.149,28.723v-89.886c0-8.335,6.463-12.501,12.925-12.501
			c6.463,0,12.925,4.166,12.925,12.501v109.441v58.545c5.725-9.078,12.256-17.906,19.58-26.463
			c9.487-11.086,19.016-21.738,27.834-32.93c8.217-10.438,15.812-21.338,22.109-33.541c13.938-27.023,19.562-57.823,18.975-88.01
			c-0.162-8.335,6.215-12.497,12.674-12.497c6.467,0,13.016,4.169,13.178,12.497c0.6,30.796-5.32,60.293-16.912,87.67
			c-7.846,18.523-18.262,36.088-31.109,52.387c-17.225,21.857-37.736,40.568-51.775,64.865
			C272.657,483.141,269.662,536.006,275.488,563.451z"/>
	</g>
</g>
<g>
</g>
<g>
</g>
<g>
</g>
<g>
</g>
<g>
</g>
<g>
</g>
<g>
</g>
<g>
</g>
<g>
</g>
<g>
</g>
<g>
</g>
<g>
</g>
<g>
</g>
<g>
</g>
<g>
</g>
</svg>
