<?xml version="1.0" encoding="iso-8859-1"?>
<!-- Generator: Adobe Illustrator 16.0.0, SVG Export Plug-In . SVG Version: 6.00 Build 0)  -->
<!DOCTYPE svg PUBLIC "-//W3C//DTD SVG 1.1//EN" "http://www.w3.org/Graphics/SVG/1.1/DTD/svg11.dtd">
<svg version="1.1" id="Capa_1" xmlns="http://www.w3.org/2000/svg" xmlns:xlink="http://www.w3.org/1999/xlink" x="0px" y="0px"
	 width="585.725px" height="585.726px" viewBox="0 0 585.725 585.726" style="enable-background:new 0 0 585.725 585.726;"
	 xml:space="preserve">
<g>
	<g>
		<path d="M302.937,585.726c8.939,0,17.988-6.022,17.988-17.531v-76.745l164.461-15.455c1.746,0.412,3.546,0.62,5.361,0.62
			c5.867,0,11.416-2.195,15.214-6.022c3.656-3.676,5.569-8.625,5.533-14.309c-1-162.045-65.231-322.825-176.265-441.264
			c-2.811-7.76-10.836-13.904-19.208-14.741c-6.508-1.162-13.509,1.367-18.475,6.585C165.062,111.014,81.593,274.553,74.253,444.391
			c-0.392,8.992,4.418,16.283,12.587,19.176c1.611,1.069,3.382,1.934,5.275,2.574c58.85,19.805,120.657,28.536,182.743,25.859
			c2.884,1.819,6.283,2.844,10.086,2.741v73.448C284.949,579.703,293.998,585.726,302.937,585.726z M169.178,382.007
			c-2.737,8.201-0.253,16.435,6.487,21.498l62.489,46.94c-40.976-1.403-81.706-8.205-121.303-20.27
			c10.372-146.243,80.821-284.486,193.805-380.342c96.585,105.86,152.791,242.621,158.609,385.915L320.93,449.687V427.16
			l76.822-77.087c5.186-5.202,6.658-12.232,3.933-18.801c-2.921-7.03-9.992-11.942-17.201-11.942c-4.504,0-8.715,1.84-12.175,5.316
			l-51.379,51.551V254.911l37.895-38.364c5.165-5.234,6.609-12.284,3.859-18.857c-2.929-7.01-9.979-11.905-17.152-11.905
			c-4.508,0-8.727,1.853-12.187,5.356l-12.415,12.575V164.87c0-11.51-9.05-17.536-17.989-17.536
			c-8.938,0-17.988,6.026-17.988,17.536v113.733l-36.051-36.051c-3.468-3.468-7.675-5.3-12.171-5.3
			c-7.226,0-14.305,4.917-17.222,11.959c-2.717,6.561-1.24,13.582,3.958,18.78l61.485,61.489v111.343l-90.344-67.862
			c-3.117-2.338-6.418-3.525-9.82-3.525C177.962,369.433,171.688,374.488,169.178,382.007z"/>
	</g>
</g>
</svg>
