<?xml version="1.0" encoding="iso-8859-1"?>
<!-- Generator: Adobe Illustrator 16.0.0, SVG Export Plug-In . SVG Version: 6.00 Build 0)  -->
<!DOCTYPE svg PUBLIC "-//W3C//DTD SVG 1.1//EN" "http://www.w3.org/Graphics/SVG/1.1/DTD/svg11.dtd">
<svg version="1.1" id="Capa_1" xmlns="http://www.w3.org/2000/svg" xmlns:xlink="http://www.w3.org/1999/xlink" x="0px" y="0px"
	 width="579.192px" height="579.193px" viewBox="0 0 579.192 579.193" style="enable-background:new 0 0 579.192 579.193;"
	 xml:space="preserve">
<g>
	<g>
		<path d="M232.097,7.479c-34.757,1.657-72.779,4.651-97.899,28.731c-19.376,18.568-27.05,46.492-28.201,73.305
			c-1.15,26.814,3.354,53.525,4.357,80.344c1.657,44.162-5.043,92.75,20.678,128.688c11.281,15.761,27.328,26.679,45.169,34.598
			c-0.192,1.673-0.232,3.456-0.073,5.357c2.174,26.242-0.555,52.277,24.978,68.278c18.242,11.433,41.175,17.157,62.673,23.109
			c-0.424,29.646-1.285,75.599-2.627,105.228c-1.46,32.171,48.426,32.028,49.879,0c0.628-13.827,1.15-43.979,1.57-57.813
			c25.508-13.505,56.944-16.92,73.848-43.354c16.019-25.043,13.922-51.175,16.386-79.805c0.053-0.628,0.053-1.224,0.069-1.828
			c15.476-3.994,29.959-10.502,41.433-21.469c17.409-16.638,25.161-41.188,27.446-65.162c2.284-23.974-0.221-48.124,0.061-72.204
			c0.073-6.369,0.343-12.742,0.637-19.115c0.71-15.443,1.562-30.886,0.114-46.255c-2.04-21.714-9.318-43.95-25.406-58.675
			c-17.658-16.165-42.774-20.771-66.532-23.717c-40.445-5.014-81.237-7.201-121.984-6.544c-22.281,0.359-46.92,2.607-62.216,18.809
			c-14.994,15.884-16.104,39.956-16.356,61.796c-0.31,26.65-0.62,53.305-0.93,79.956c-0.196,16.924-0.18,34.737,8.099,49.499
			c13.056,23.285,41.897,31.604,67.858,37.826c23.97,5.748,48.373,11.534,72.972,9.996c24.599-1.539,49.878-11.526,64.101-31.657
			c14.541-20.575,15.243-47.544,15.406-72.738c0.102-15.867,0-32.566-7.813-46.377c-13.814-24.415-45.532-30.694-73.33-34.448
			c-23.688-3.199-50.372-5.622-68.997,9.352c-8.772,7.05-14.614,17.373-17.271,28.311c-6.006,24.708,5.112,52.64,26.459,66.459
			c18.294,11.844,84.403,16.483,71.425-21.318c-6.092-17.744-32.942-19.927-49.426-17.564c0.033-7.14,0.065-14.276,0.102-21.412
			c81.005-22.734,71.086,38.507,72.465,52.179c1.383,13.672,0.004,29.658-11.154,37.675c-6.732,4.839-15.517,5.549-23.807,5.647
			c-34.297,0.4-68.667-6.981-99.773-21.433c-2.876-47.075-2.285-94.366,1.779-141.355c50.706-6.704,102.44-5.589,152.812,3.289
			c14.513,2.558,30.131,6.487,39.196,18.107c8.874,11.379,9.082,27.05,8.891,41.481c-0.379,28.776-0.759,57.548-1.139,86.325
			c-0.285,21.689-1.583,45.847-17.192,60.91c-13.644,13.162-34.256,15.337-53.203,15.892c-39.287,1.154-78.688-1.583-117.439-8.156
			c-26.691-4.524-55.456-12.398-71.151-34.451c-11.412-16.034-13.696-36.646-15.039-56.279c-2.958-43.281-3.084-86.753-0.379-130.05
			c3.325-53.236,42.114-48.764,84.753-53.313c52.632-5.618,107.292,0.522,159.186-6.136c13.354-1.713,28.604-16.336,24.998-31.044
			c-4.296-17.512-29.543-15.145-44.37-14.439C329.491,2.836,280.795,5.158,232.097,7.479z M313.729,379.147
			c12.942,0.396,25.896,0.281,38.83-0.351c-0.902,10.453-1.8,12.746-2.701,23.199c-0.698,8.114-0.245,18.951-5.818,25.598
			c-6.263,7.471-17.274,10.624-26.071,13.737c-1.432,0.506-2.848,1.036-4.275,1.555
			C313.975,418.923,314.023,403.117,313.729,379.147z M263.814,374.994c0.139,10.147,0.164,12.134,0.2,22.276
			c-8.846-2.803-17.691-5.609-26.541-8.412c-5.867-1.861-8.242-0.816-8.825-6.602c-0.734-7.263-1.293-6.39-1.856-13.672
			C239.045,371.195,251.399,373.321,263.814,374.994z"/>
	</g>
</g>
<g>
</g>
<g>
</g>
<g>
</g>
<g>
</g>
<g>
</g>
<g>
</g>
<g>
</g>
<g>
</g>
<g>
</g>
<g>
</g>
<g>
</g>
<g>
</g>
<g>
</g>
<g>
</g>
<g>
</g>
</svg>
