<?xml version="1.0" encoding="iso-8859-1"?>
<!-- Generator: Adobe Illustrator 16.0.0, SVG Export Plug-In . SVG Version: 6.00 Build 0)  -->
<!DOCTYPE svg PUBLIC "-//W3C//DTD SVG 1.1//EN" "http://www.w3.org/Graphics/SVG/1.1/DTD/svg11.dtd">
<svg version="1.1" id="Capa_1" xmlns="http://www.w3.org/2000/svg" xmlns:xlink="http://www.w3.org/1999/xlink" x="0px" y="0px"
	 width="579.477px" height="579.477px" viewBox="0 0 579.477 579.477" style="enable-background:new 0 0 579.477 579.477;"
	 xml:space="preserve">
<g>
	<g>
		<path d="M360.317,561.649V332.537c33.171-11.914,58.838-41.146,64.493-76.41c3.301-20.584-28.148-29.417-31.474-8.678
			c-3.402,21.22-15.247,39.009-33.02,49.253v-24.488c0-21.049-32.64-21.049-32.64,0v289.431
			C327.678,582.698,360.317,582.698,360.317,561.649z"/>
		<path d="M303.197,563.689V329.338c0-21.048-32.64-21.048-32.64,0v9.604c-11.306-6.846-20.171-17.197-24.692-30.38
			c-6.79-19.788-38.324-11.289-31.473,8.679c9.225,26.887,29.669,48.45,56.165,57.862v55.505l-27.099-19.743
			c-7.206-5.251-18.172-1.24-22.33,5.854c-4.839,8.258-1.318,17.104,5.855,22.33c13.737,10.008,27.479,20.017,41.216,30.028
			c0.743,0.543,1.546,0.927,2.358,1.277v93.338C270.558,584.738,303.197,584.738,303.197,563.689z"/>
		<path d="M173.98,1.155c-16.01,3.337-13.635,47.259-10.298,63.269S176.22,92.058,192.23,88.72c16.01-3.337,19.8-17.67,16.467-33.68
			C205.359,39.034,189.99-2.182,173.98,1.155z"/>
		<path d="M428.943,177.917c-10.942,12.154-14.884,26.447-2.733,37.389c12.154,10.943,25.957,5.533,36.899-6.618
			c10.942-12.154,35.112-48.907,22.958-59.85C473.921,137.893,439.89,165.763,428.943,177.917z"/>
		<path d="M526.635,258.159c-0.38-16.349-44.007-21.975-60.355-21.591c-16.349,0.383-29.449,7.323-29.07,23.672
			c0.38,16.349,13.791,22.677,30.14,22.297S527.015,274.511,526.635,258.159z"/>
		<path d="M436.051,339.028c14.133,8.233,55.047,24.382,63.276,10.253c8.233-14.133-26.002-41.751-40.135-49.984
			s-28.927-9.167-37.161,4.962C413.807,318.388,421.922,330.795,436.051,339.028z"/>
		<path d="M373.753,146.514c-0.946-0.119-1.877-0.074-2.79,0.098c-0.89-0.281-1.808-0.445-2.759-0.445
			c-11.546,0-18.241,21.665-21.188,40.164c-1.771,6.504-2.974,12.485-3.505,16.704c-2.031,16.226,2.909,30.208,19.136,32.236
			c0.881,0.11,1.726,0.159,2.558,0.188c0.069,0.004,0.147,0.012,0.213,0.016c0.069,0.008,0.146,0.004,0.22,0.012
			c0.828,0.078,1.673,0.131,2.562,0.131c16.353,0,22.991-13.26,22.991-29.613c0-4.251-0.453-10.334-1.404-17.009
			C389.163,170.275,385.206,147.945,373.753,146.514z"/>
		<path d="M254.85,201.422c-16.247,1.873-17.854,45.831-15.981,62.078c1.873,16.247,9.988,28.658,26.234,26.781
			c16.247-1.876,21.318-15.806,19.445-32.052C282.675,241.981,271.096,199.549,254.85,201.422z"/>
		<path d="M215.323,235.029c-9.625-13.224-40.58-44.472-53.803-34.852c-13.223,9.625,7.001,48.687,16.626,61.91
			c9.625,13.223,22.791,20.037,36.014,10.412C227.383,262.875,224.947,248.248,215.323,235.029z"/>
		<path d="M152.278,81.458c-7.385-14.59-32.946-50.388-47.536-43.003c-14.59,7.385-0.873,49.18,6.512,63.771
			s19.294,23.423,33.885,16.039C159.732,110.875,159.663,96.048,152.278,81.458z"/>
		<path d="M81.854,326.919c7.613,14.476,49.188,0.11,63.66-7.503s23.122-19.658,15.508-34.134s-22.436-14.178-36.912-6.564
			C109.634,286.331,74.245,312.443,81.854,326.919z"/>
		<path d="M145.897,407.303c13.378,9.404,43.815-22.35,53.224-35.729c9.408-13.378,11.604-28.042-1.779-37.446
			c-13.383-9.404-26.435-2.378-35.839,11.004C152.095,358.506,132.515,397.895,145.897,407.303z"/>
		<path d="M113.139,251.798c16.353-0.339,29.47-7.246,29.131-23.595c-0.338-16.353-13.729-22.713-30.078-22.375
			c-16.353,0.338-59.686,7.866-59.352,24.219S96.787,252.132,113.139,251.798z"/>
		<path d="M117.843,171.108c11.922-11.196,7.687-25.402-3.509-37.324c-11.195-11.921-45.798-39.078-57.72-27.887
			c-11.922,11.196,13.003,47.438,24.198,59.36C92.004,177.179,105.917,182.299,117.843,171.108z"/>
		<path d="M247.975,58.622c-16.271,1.661-18.454,45.594-16.793,61.865s9.608,28.784,25.879,27.124s21.526-15.524,19.866-31.795
			C275.262,99.544,264.246,56.961,247.975,58.622z"/>
		<path d="M302.238,89.442c16.353-0.175,22.849-13.505,22.669-29.857C324.731,43.232,317.628-0.179,301.271,0
			c-16.352,0.176-22.521,43.729-22.346,60.083C279.105,76.431,285.886,89.618,302.238,89.442z"/>
		<path d="M401.415,103.025c-10.954,12.142-14.908,26.43-2.766,37.389c12.142,10.955,25.953,5.557,36.907-6.585
			c10.955-12.142,35.157-48.874,23.012-59.829C446.426,63.041,412.37,90.878,401.415,103.025z"/>
		<path d="M374.813,31.963C359,27.79,341.492,68.141,337.318,83.955c-4.174,15.814-1.138,30.326,14.676,34.496
			c15.814,4.17,25.614-6.952,29.784-22.767C385.952,79.875,390.628,36.137,374.813,31.963z"/>
		<path d="M170.688,122.164c-12.975,9.959,8.237,48.491,18.197,61.465c9.959,12.974,23.297,19.449,36.267,9.49
			c12.975-9.959,10.163-24.517,0.208-37.487C215.4,142.658,183.658,112.205,170.688,122.164z"/>
		<path d="M331.546,194.596c0-16.353-6.639-59.837-22.991-59.837s-22.991,43.485-22.991,59.837s6.638,29.613,22.991,29.613
			S331.546,210.949,331.546,194.596z"/>
	</g>
</g>
</svg>
