<?xml version="1.0" encoding="iso-8859-1"?>
<!-- Generator: Adobe Illustrator 16.0.0, SVG Export Plug-In . SVG Version: 6.00 Build 0)  -->
<!DOCTYPE svg PUBLIC "-//W3C//DTD SVG 1.1//EN" "http://www.w3.org/Graphics/SVG/1.1/DTD/svg11.dtd">
<svg version="1.1" id="Capa_1" xmlns="http://www.w3.org/2000/svg" xmlns:xlink="http://www.w3.org/1999/xlink" x="0px" y="0px"
	 width="563.657px" height="563.657px" viewBox="0 0 563.657 563.657" style="enable-background:new 0 0 563.657 563.657;"
	 xml:space="preserve">
<g>
	<g>
		<path d="M413.493,374.434c-15.116-2.031-29.796-6.752-43.383-13.896c-0.122,3.941-0.522,7.883-1.392,11.824
			c-2.917,13.24-22.885,15.279-33.521,18.205c-17.426,4.793-34.855,9.588-52.281,14.377v-68.238
			c-15.671-1.32-30.865-5.576-44.941-12.256v70.262c-12.897-12.729-25.79-25.463-38.687-38.197
			c0.13-11.881,0.261-23.762,0.396-35.643c-12.693,8.816-26.928,15.354-42.334,19.258c-0.938,0.236-1.889,0.408-2.828,0.625
			c-0.098,8.922-0.196,17.846-0.298,26.771c-0.11,10.01,5.174,16.553,12.15,19.65c24.366,24.055,48.731,48.111,73.097,72.172v82.574
			c0,28.98,44.941,28.98,44.941,0V451.42c0-0.01,0-0.018,0-0.025c32.636-8.314,66.149-15.969,96.794-29.146
			C401.698,413.439,410.527,394.666,413.493,374.434z"/>
		<path d="M494.779,21.612c-17.663-10.519-37.071-15.524-56.235-15.524c-27.744,0-54.961,10.489-75.61,29.918
			c-17.621-10.461-36.977-15.431-56.084-15.431c-9.955,0-19.841,1.351-29.383,3.974C258.164,8.956,233.79,0,208.237,0
			c-8.959,0-18.062,1.102-27.148,3.403C132.312,15.765,99.497,58.899,98.04,106.81c-58.887,15.01-94.509,74.889-79.572,133.82
			c12.648,49.896,57.496,83.13,106.717,83.13c8.963,0,18.062-1.102,27.148-3.402c0.824-0.209,1.604-0.498,2.419-0.723
			c17.43-4.842,32.754-13.598,45.219-25.137c4.549-4.211,8.739-8.771,12.497-13.652c7.45,8.144,16.067,15.076,25.5,20.628
			c13.607,8.014,28.915,13.125,44.941,14.729c3.59,0.359,7.217,0.561,10.868,0.561c8.96,0,18.059-1.102,27.141-3.404
			c6.548-1.66,12.791-3.904,18.728-6.609c7.597,11.244,17.36,21.24,29.155,29.279c1.844,1.256,3.729,2.473,5.671,3.631
			c12.746,7.588,26.406,12.268,40.221,14.312c5.341,0.791,10.706,1.221,16.051,1.221c37.553,0,74.15-19.209,94.763-53.816
			c22.003-36.94,19.869-81.53-1.706-115.504c3.354-4.121,6.459-8.527,9.258-13.228C564.196,120.368,547.056,52.746,494.779,21.612z"
			/>
	</g>
</g>
<g>
</g>
<g>
</g>
<g>
</g>
<g>
</g>
<g>
</g>
<g>
</g>
<g>
</g>
<g>
</g>
<g>
</g>
<g>
</g>
<g>
</g>
<g>
</g>
<g>
</g>
<g>
</g>
<g>
</g>
</svg>
