<?xml version="1.0" encoding="UTF-8"?>
<svg width="48px" height="49px" viewBox="0 0 48 49" version="1.1" xmlns="http://www.w3.org/2000/svg" xmlns:xlink="http://www.w3.org/1999/xlink">
    <!-- Generator: Sketch 52.5 (67469) - http://www.bohemiancoding.com/sketch -->
    <title>Icon - Crown width</title>
    <desc>Created with Sketch.</desc>
    <g id="Icon---Crown-width" stroke="none" stroke-width="1" fill="none" fill-rule="evenodd">
        <g id="Group-21-Copy" transform="translate(0.000000, 1.000000)">
            <g id="Group-14">
                <rect id="Rectangle-Copy-11" fill="#0A1816" fill-rule="nonzero" opacity="0" x="0" y="0" width="48" height="48"></rect>
                <g id="trees-copy-3" transform="translate(6.000000, 10.750000)" fill="#138D6A" fill-rule="nonzero">
                    <path d="M35.9253056,16.7655967 C35.9259792,15.1866861 35.2335967,13.6871102 34.0314511,12.6635426 C34.4896466,11.9161497 34.7307942,11.0559667 34.7278004,10.1793181 C34.724657,7.75047817 32.9066195,5.70716008 30.4946195,5.42162994 C30.5226112,5.21244075 30.5366819,5.00160499 30.5365322,4.7905447 C30.5427443,2.15101871 28.4080416,0.00628690229 25.7685156,7.48440748e-05 C24.2153514,-0.00359251559 22.7572391,0.747767152 21.8588108,2.01472765 C20.3340873,-0.137039501 17.3537214,-0.645305613 15.2019543,0.879417879 C14.7621705,1.19106861 14.3782952,1.57494387 14.0666445,2.01472765 C12.5334636,-0.13629106 9.54688565,-0.637147609 7.39586694,0.89595842 C5.9532474,1.92416632 5.19717256,3.66556341 5.43083576,5.42162994 C3.01883576,5.70716008 1.20079834,7.75047817 1.19765489,10.1793181 C1.19466112,11.0559667 1.43580873,11.9161497 1.89400416,12.6635426 C-0.371151767,14.593921 -0.642536383,17.9951351 1.287842,20.2602911 C1.4734553,20.4781622 1.6762079,20.6808399 1.89400416,20.8664532 C1.4355842,21.6142204 1.19443659,22.4747775 1.19765489,23.3518753 C1.20064865,25.9961164 3.34343451,28.1389023 5.98767568,28.141896 L9.58019127,28.141896 L9.58019127,34.7281746 L7.78393347,34.7281746 C7.45327235,34.7281746 7.18518087,34.9962661 7.18518087,35.3269272 C7.18518087,35.6575884 7.45327235,35.9256798 7.78393347,35.9256798 L28.1415218,35.9256798 C28.472183,35.9256798 28.7402744,35.6575884 28.7402744,35.3269272 C28.7402744,34.9962661 28.472183,34.7281746 28.1415218,34.7281746 L26.345264,34.7281746 L26.345264,28.141896 L29.9377796,28.141896 C32.5820208,28.1389023 34.7248067,25.9961164 34.7278004,23.3518753 C34.7307942,22.4752266 34.4896466,21.6150437 34.0314511,20.8676507 C35.2335967,19.8440832 35.9259044,18.3444324 35.9253056,16.7655967 Z M5.98767568,26.9390021 C4.00647817,26.9370561 2.40009979,25.3330728 2.39516008,23.3518753 C2.39283992,22.5375717 2.67036175,21.7472183 3.18132225,21.1131393 C3.38766736,20.8547775 3.34553015,20.4780125 3.0871684,20.2715925 C3.07466944,20.2615634 3.06172141,20.2520582 3.04839917,20.2431518 C1.12782536,18.9510437 0.618286902,16.3466944 1.91032017,14.4260457 C2.21261538,13.9767568 2.59903534,13.590262 3.04839917,13.2880416 C3.32247817,13.1031019 3.39477755,12.7309023 3.20976299,12.4568233 C3.2007817,12.443501 3.19127651,12.4306279 3.18132225,12.4180541 C2.67036175,11.7839751 2.39283992,10.9936216 2.39516008,10.1793181 C2.39710603,8.19602495 4.00438254,6.58874844 5.98767568,6.58680249 L6.1427526,6.59518503 C6.33637422,6.60483992 6.52221206,6.51809563 6.6391185,6.36346778 C6.75812058,6.21078586 6.79539293,6.00975468 6.73911019,5.82459044 C6.17822869,3.9214553 7.26638669,1.92394179 9.16959667,1.36306029 C10.861447,0.864449064 12.6649647,1.66782536 13.4259792,3.25893555 C13.4259792,3.26492308 13.4259792,3.2709106 13.4217879,3.27689813 C13.3471684,3.50135551 13.2894636,3.73112682 13.2493472,3.96426611 C13.2421622,4.00438254 13.2367734,4.04509771 13.2307859,4.08401663 C13.1591601,4.52604574 13.1536965,4.97623285 13.2146195,5.41983368 C10.8019459,5.70551351 8.98368399,7.74972973 8.98143867,10.1793181 C8.97844491,11.0559667 9.21959252,11.9161497 9.67778794,12.6635426 C9.6670104,12.6731227 9.65802911,12.6833015 9.64725156,12.6928815 L6.86005821,9.90568815 C6.62220374,9.67599168 6.2431185,9.68257796 6.01342204,9.92043243 C5.78933888,10.1524491 5.78933888,10.5203077 6.01342204,10.7523243 L8.83474428,13.5736466 C7.15651559,15.8490561 7.52474844,19.0350187 9.67778794,20.8676507 C9.44674428,21.2444906 9.27011227,21.6520166 9.15328067,22.0783285 L7.00974636,19.9347942 C6.77189189,19.7050229 6.3928815,19.7116091 6.16311019,19.9494636 C5.93902703,20.1814802 5.93902703,20.5493389 6.16311019,20.7814304 L8.99461123,23.6129314 C8.99940125,23.696158 9.00059875,23.7799834 9.00958004,23.8614137 C9.01556757,23.9176965 9.02694387,23.9715842 9.03472765,24.0266694 C9.05029522,24.1374387 9.06586279,24.2476091 9.08921414,24.3559834 C9.10298545,24.4206486 9.12214553,24.4829189 9.13831185,24.5463867 C9.16286071,24.6421871 9.18740956,24.7385863 9.21794595,24.8319917 C9.23950104,24.8984532 9.2652474,24.961921 9.28979626,25.027185 C9.32272765,25.1146029 9.35565904,25.2026195 9.39397921,25.2876424 C9.42271933,25.3523077 9.45385447,25.4151767 9.48558836,25.4780457 C9.52630353,25.5600748 9.56821622,25.6409064 9.61312266,25.7175468 C9.64844906,25.777422 9.68617048,25.8372973 9.72449064,25.8971726 C9.77239085,25.9732141 9.82148857,26.0474595 9.87358004,26.1199085 C9.91489397,26.1797838 9.95800416,26.2354678 10.0023119,26.2917505 C10.0567983,26.3624033 10.1136798,26.4300624 10.1723576,26.4971227 C10.219659,26.5510104 10.2675593,26.6042994 10.316657,26.6557921 C10.3765322,26.7204574 10.4429938,26.7821289 10.5088565,26.8432017 C10.5417879,26.8743368 10.5723243,26.9090644 10.6064532,26.9390021 L5.98767568,26.9390021 Z M17.3639751,34.7281746 L10.7776965,34.7281746 L10.7776965,28.141896 L17.3639751,28.141896 L17.3639751,34.7281746 Z M17.9627277,7.78430769 C17.6320665,7.78430769 17.3639751,8.05239917 17.3639751,8.38306029 L17.3639751,12.6258212 L14.643842,9.90568815 C14.4059875,9.67599168 14.0269023,9.68257796 13.7972058,9.92043243 C13.5731227,10.1524491 13.5731227,10.5203077 13.7972058,10.7523243 L17.3639751,14.3190936 L17.3639751,22.5052391 L14.7935301,19.9347942 C14.5556757,19.7050229 14.1766653,19.7116091 13.946894,19.9494636 C13.7228108,20.1814802 13.7228108,20.5493389 13.946894,20.7814304 L17.3639751,24.1985114 L17.3639751,26.9443909 L13.7714595,26.9443909 C11.7881663,26.9424449 10.1808898,25.3351684 10.1789439,23.3518753 C10.1766237,22.5375717 10.4541455,21.7472183 10.965106,21.1131393 C11.1714511,20.8547775 11.1293139,20.4780125 10.8709522,20.2715925 C10.8584532,20.2615634 10.8455052,20.2520582 10.832183,20.2431518 C8.91160915,18.9510437 8.40207069,16.3466944 9.69410395,14.4260457 C9.99639917,13.9767568 10.3828191,13.590262 10.832183,13.2880416 C11.106262,13.1031019 11.1785613,12.7309023 10.9935468,12.4568233 C10.9845655,12.443501 10.9750603,12.4306279 10.965106,12.4180541 C10.4541455,11.7839751 10.1766237,10.9936216 10.1789439,10.1793181 C10.1808898,8.19602495 11.7881663,6.58874844 13.7714595,6.58680249 L13.9265364,6.59518503 C14.1203825,6.60596258 14.3066694,6.51899376 14.4229023,6.36346778 C14.5419044,6.21078586 14.5791767,6.00975468 14.522894,5.82459044 C14.4220042,5.48913929 14.3705114,5.14081497 14.3702121,4.7905447 C14.3705114,4.56953015 14.3916175,4.3490395 14.4330811,4.13191684 C14.4330811,4.1235343 14.4330811,4.11455301 14.4366736,4.10617048 C14.4800832,3.89002079 14.5428025,3.67821206 14.6240832,3.47328898 C15.1646819,2.10162162 16.4883742,1.19952599 17.9627277,1.19802911 C19.4370811,1.19952599 20.7607734,2.10162162 21.3013721,3.47328898 C21.3828773,3.67955925 21.4455967,3.89279002 21.4887817,4.11036175 C21.4887817,4.11874428 21.4887817,4.12772557 21.4923742,4.13610811 C21.5336133,4.35180873 21.5546445,4.57095218 21.5552432,4.7905447 C21.5549439,5.14081497 21.5034511,5.48913929 21.4025613,5.82459044 C21.3462786,6.00975468 21.3835509,6.21078586 21.502553,6.36346778 C21.6192349,6.51839501 21.8052225,6.60521414 21.9989189,6.59518503 L22.1539958,6.58680249 C24.137289,6.58874844 25.7445655,8.19602495 25.7465114,10.1793181 C25.7488316,10.9936216 25.4713098,11.7839751 24.9603493,12.4180541 C24.7540042,12.6764158 24.7961414,13.0531809 25.0545031,13.2596008 C25.0670021,13.2696299 25.0799501,13.2791351 25.0932723,13.2880416 C27.0138462,14.5801497 27.5233846,17.184499 26.2312765,19.1051476 C25.9289813,19.5544366 25.5425613,19.9409314 25.0932723,20.2431518 C24.8191933,20.4280915 24.746894,20.8002911 24.9319085,21.0743701 C24.9408898,21.0876923 24.950395,21.1005655 24.9603493,21.1131393 C25.4713098,21.7472183 25.7488316,22.5375717 25.7465114,23.3518753 C25.7445655,25.3351684 24.137289,26.9424449 22.1539958,26.9443909 L18.5614802,26.9443909 L18.5614802,18.7684241 C18.6061622,18.7463451 18.6478503,18.718578 18.685422,18.6857963 L22.5773139,14.7939044 C22.8070852,14.5560499 22.800499,14.1770395 22.5626445,13.9472682 C22.3306279,13.723185 21.9627692,13.723185 21.7306778,13.9472682 L18.5614802,17.1164657 L18.5614802,8.38306029 C18.5614802,8.05232432 18.2933888,7.78430769 17.9627277,7.78430769 Z M25.1477588,34.7281746 L18.5614802,34.7281746 L18.5614802,28.141896 L25.1477588,28.141896 L25.1477588,34.7281746 Z M32.7156175,21.0743701 C32.7245988,21.0876923 32.734104,21.1005655 32.7440582,21.1131393 C33.2550187,21.7472183 33.5325405,22.5375717 33.5302204,23.3518753 C33.5282744,25.3351684 31.9209979,26.9424449 29.9377048,26.9443909 L25.3190021,26.9443909 C25.353131,26.9144532 25.3836674,26.8797256 25.4165988,26.8485904 C25.4824615,26.7887152 25.5465281,26.7258462 25.6087983,26.6611809 C25.657896,26.6096881 25.7057963,26.5563992 25.7530977,26.5025114 C25.812973,26.4354511 25.868657,26.3677921 25.9231435,26.2971393 C25.9674511,26.2408565 26.0105613,26.1839751 26.0518753,26.1252973 C26.1039667,26.0528482 26.1530644,25.9786029 26.2009647,25.9025613 C26.2392848,25.8426861 26.2770062,25.7828108 26.3123326,25.7229356 C26.3572391,25.6439002 26.3991518,25.5630686 26.4398669,25.4834345 C26.4710021,25.4205655 26.4997422,25.3576965 26.5314761,25.2930312 C26.5697963,25.2080083 26.6027277,25.1199917 26.635659,25.0325738 C26.6602079,24.9673098 26.6859543,24.903842 26.7075094,24.8373805 C26.7380457,24.7439751 26.7625946,24.6475759 26.7871435,24.5517755 C26.8033098,24.4883077 26.8224699,24.4260374 26.8362412,24.3613721 C26.8595925,24.2529979 26.8751601,24.1428274 26.8907277,24.0320582 C26.8985114,23.976973 26.9098877,23.9230852 26.9158753,23.8668025 C26.9345114,23.6957838 26.9439418,23.5238669 26.9440166,23.3518753 C26.9470104,22.4752266 26.7058628,21.6150437 26.2476674,20.8676507 C27.377738,19.9023867 28.0580707,18.5124574 28.1271518,17.0278503 L30.3610977,14.7939044 C30.590869,14.5560499 30.5842827,14.1770395 30.3464283,13.9472682 C30.1144116,13.723185 29.746553,13.723185 29.5144615,13.9472682 L27.9810561,15.4806736 C27.7129647,14.3839834 27.1065031,13.3994096 26.2476674,12.6665364 C26.7063867,11.9183202 26.9475343,11.0570146 26.9440166,10.1793181 C26.9408732,7.75047817 25.1228358,5.70716008 22.7108358,5.42162994 C22.7711601,4.97795426 22.7650977,4.52769231 22.6928732,4.08581289 C22.6868857,4.04509771 22.6814969,4.00438254 22.6743119,3.96606237 C22.6341954,3.73292308 22.5764906,3.50315177 22.5018711,3.27869439 C22.5018711,3.27270686 22.5018711,3.26671933 22.4976798,3.26073181 C23.3538212,1.47083576 25.4987775,0.713862786 27.2886736,1.57000416 C28.8797838,2.33101871 29.6830852,4.13461123 29.1845489,5.82638669 C29.1282661,6.01155094 29.1655385,6.21258212 29.2845405,6.36526403 C29.401447,6.51989189 29.5872848,6.60663617 29.7809064,6.59698129 L29.9377796,6.58680249 C31.9210728,6.58874844 33.5283493,8.19602495 33.5302952,10.1793181 C33.5326154,10.9936216 33.2550936,11.7839751 32.7441331,12.4180541 C32.5377879,12.6764158 32.5799252,13.0531809 32.8382869,13.2596008 C32.8507859,13.2696299 32.8637339,13.2791351 32.8770561,13.2880416 C34.7976299,14.5801497 35.3071684,17.184499 34.0150603,19.1051476 C33.7127651,19.5544366 33.3263451,19.9409314 32.8770561,20.2431518 C32.6029023,20.4280915 32.5306778,20.8002911 32.7156175,21.0743701 Z" id="Shape"></path>
                </g>
                <g id="arrows_vertical" transform="translate(24.500000, 4.750000) rotate(-90.000000) translate(-24.500000, -4.750000) translate(20.500000, -8.750000)" stroke="#138D6A" stroke-linecap="round" stroke-linejoin="round" stroke-width="1.5">
                    <polyline id="Path" points="8 4 4 0 0 4"></polyline>
                    <polyline id="Path" points="0 23 4 27 8 23"></polyline>
                    <polyline id="Path" points="4 27 4 18.2903226 4 0"></polyline>
                </g>
            </g>
        </g>
    </g>
</svg>