<?xml version="1.0" encoding="UTF-8"?>
<svg width="24px" height="25px" viewBox="0 0 24 25" version="1.1" xmlns="http://www.w3.org/2000/svg" xmlns:xlink="http://www.w3.org/1999/xlink">
    <!-- Generator: Sketch 52.4 (67378) - http://www.bohemiancoding.com/sketch -->
    <title>forest copy</title>
    <desc>Created with Sketch.</desc>
    <g id="Views" stroke="none" stroke-width="1" fill="none" fill-rule="evenodd">
        <g id="Park-view-with-info" transform="translate(-21.000000, -365.000000)" fill="#058E3F" fill-rule="nonzero">
            <g id="Group" transform="translate(0.000000, 337.000000)">
                <g id="Group-Copy" transform="translate(16.000000, 24.000000)">
                    <g id="forest-copy" transform="translate(5.000000, 4.000000)">
                        <path d="M23.2758761,10.9105669 C23.2758761,7.93115086 20.8519637,5.50723853 17.8725477,5.50723853 C16.8163009,5.50723853 15.7829144,5.82016398 14.9064841,6.39541063 C14.6789208,5.39880828 14.3763864,4.43867839 14.0110383,3.57954918 C13.029347,1.27128886 11.7437186,0 10.3910161,0 C9.03680693,0 7.75117846,1.2660414 6.77114978,3.56489785 C6.42590827,4.37472169 6.13667433,5.2762982 5.91383899,6.21512651 L4.55739575,1.24146665 C4.50803843,1.06066297 4.34380842,0.935191449 4.15640644,0.935191449 C3.96900446,0.935191449 3.8047225,1.06066297 3.75541713,1.2415186 L0.0146513327,14.9576599 C-0.0194312001,15.0826118 0.00670220538,15.2163442 0.0853102422,15.3192672 C0.163970234,15.4222422 0.286116628,15.482614 0.415640644,15.482614 L3.7407658,15.482614 L3.7407658,24.5833671 C3.7407658,24.8129046 3.92686889,24.9990077 4.15640644,24.9990077 C4.38594399,24.9990077 4.57204708,24.8129046 4.57204708,24.5833671 L4.57204708,15.482614 L7.89717224,15.482614 C8.02669625,15.482614 8.14884265,15.4222422 8.22745068,15.3192153 C8.29145934,15.2354117 8.31998268,15.1312418 8.31026708,15.0279551 C8.82451847,15.2646105 9.38552943,15.4163193 9.97537546,15.4651571 L9.97537546,24.5833671 C9.97537546,24.8129046 10.1614786,24.9990077 10.3910161,24.9990077 C10.6205536,24.9990077 10.8066567,24.8129046 10.8066567,24.5833671 L10.8066567,15.465209 C11.8856599,15.3758983 12.8684422,14.9421772 13.6444432,14.2743986 C14.5803621,15.4499342 15.9608086,16.1821891 17.456907,16.2973216 L17.456907,24.5833671 C17.456907,24.8129046 17.6430101,24.9990077 17.8725477,24.9990077 C18.1020852,24.9990077 18.2881883,24.8129046 18.2881883,24.5833671 L18.2881883,16.298049 C21.0741237,16.0851371 23.2758761,13.7501199 23.2758761,10.9105669 Z M7.35299472,14.6513327 L4.57204708,14.6513327 L4.57204708,13.9922306 L5.30757516,13.2567025 C5.46988283,13.0943428 5.46988283,12.8312423 5.30757516,12.6688827 C5.14521553,12.506627 4.882115,12.506627 4.71975538,12.6688827 L4.57204708,12.816539 L4.57204708,10.0792856 C4.57204708,9.84974807 4.38594399,9.66364497 4.15640644,9.66364497 C3.92686889,9.66364497 3.7407658,9.84974807 3.7407658,10.0792856 L3.7407658,11.9853097 L3.2033944,11.4479383 C3.04103477,11.2856826 2.77793424,11.2856826 2.61557462,11.4479383 C2.45326695,11.6102979 2.45326695,11.8733985 2.61557462,12.0357581 L3.7407658,13.1609493 L3.7407658,13.8197397 C3.7407658,13.8198955 3.7407658,13.8201034 3.7407658,13.8202592 L3.7407658,14.6513327 L0.959818157,14.6513327 L4.15640644,2.93047436 L5.5646489,8.09392613 C5.45507563,8.90146394 5.39683399,9.71024868 5.39683399,10.4883799 C5.39683399,12.06823 6.13438831,13.4788624 7.28301123,14.3946746 L7.35299472,14.6513327 Z M10.8066567,13.9922306 L12.3474886,12.4513987 C12.5097962,12.2890391 12.5097962,12.0259386 12.3474886,11.8635789 C12.1851289,11.7013232 11.9220284,11.7013232 11.7596688,11.8635789 L10.8066567,12.816539 L10.8066567,11.082746 L11.9318479,9.95755486 C12.0941556,9.79519524 12.0941556,9.53209471 11.9318479,9.36973508 C11.7694883,9.20747937 11.5063878,9.20747937 11.3440281,9.36973508 L10.8066567,9.90705453 L10.8066567,8.83236369 C10.8066567,8.60282614 10.6205536,8.41672304 10.3910161,8.41672304 C10.1614786,8.41672304 9.97537546,8.60282614 9.97537546,8.83236369 L9.97537546,10.9103071 C9.97537546,10.910463 9.97537546,10.9106708 9.97537546,10.9108267 L9.97537546,11.9852577 L9.02236341,11.0322457 C8.86000379,10.86999 8.59690326,10.86999 8.43454363,11.0322457 C8.27223596,11.1946053 8.27223596,11.4577059 8.43454363,11.6200655 L9.97537546,13.1609493 L9.97537546,13.8197397 C9.97537546,13.8198955 9.97537546,13.8201034 9.97537546,13.8202592 L9.97537546,14.6304468 C7.87441591,14.4211717 6.22811528,12.6434767 6.22811528,10.4883799 C6.22811528,8.27800298 6.71696063,5.81159139 7.53582465,3.89091598 C8.36481992,1.94649709 9.40548018,0.831281288 10.3910161,0.831281288 C11.3747336,0.831281288 12.4153419,1.95158869 13.2460517,3.9048919 C14.0650196,5.830555 14.5539169,8.29171912 14.5539169,10.4884319 C14.5539169,12.6435806 12.9076163,14.4212756 10.8066567,14.6304987 L10.8066567,13.9922306 Z M18.2881883,15.4635465 L18.2881883,14.8235638 L19.8290202,13.282732 C19.9913278,13.1203723 19.9913278,12.8572718 19.8290202,12.6949122 C19.6666605,12.5326565 19.40356,12.5326565 19.2412004,12.6949122 L18.2881883,13.6478203 L18.2881883,10.9105669 C18.2881883,10.6810294 18.1020852,10.4949263 17.8725477,10.4949263 C17.6430101,10.4949263 17.456907,10.6810294 17.456907,10.9105669 L17.456907,12.816591 L16.503895,11.8635789 C16.3415354,11.7013232 16.0784349,11.7013232 15.9160752,11.8635789 C15.7537676,12.0259386 15.7537676,12.2890391 15.9160752,12.4513987 L17.456907,13.9922306 L17.456907,14.651021 C17.456907,14.6511768 17.456907,14.6513847 17.456907,14.6515405 L17.456907,15.4635984 C16.1820333,15.3475308 15.0116931,14.7010537 14.232263,13.6764476 C14.9518409,12.8109279 15.3851982,11.6993489 15.3851982,10.4883799 C15.3851982,9.45177216 15.2807685,8.35853335 15.0878593,7.28503748 C15.8830318,6.67404573 16.8655543,6.33851982 17.8725477,6.33851982 C20.3935641,6.33851982 22.4445948,8.38955053 22.4445948,10.9105669 C22.4445948,13.2914604 20.6151525,15.2528167 18.2881883,15.4635465 Z" id="Shape"></path>
                    </g>
                </g>
            </g>
        </g>
    </g>
</svg>