<?xml version="1.0" encoding="UTF-8"?>
<svg width="25px" height="25px" viewBox="0 0 25 25" version="1.1" xmlns="http://www.w3.org/2000/svg" xmlns:xlink="http://www.w3.org/1999/xlink">
    <!-- Generator: Sketch 52.4 (67378) - http://www.bohemiancoding.com/sketch -->
    <title>Shape</title>
    <desc>Created with Sketch.</desc>
    <g id="Views" stroke="none" stroke-width="1" fill="none" fill-rule="evenodd">
        <g id="Park-view-with-info" transform="translate(-207.000000, -365.000000)" fill="#058E3F" fill-rule="nonzero">
            <g id="Group" transform="translate(0.000000, 337.000000)">
                <g id="Group-Copy" transform="translate(203.000000, 24.000000)">
                    <g id="trees-copy" transform="translate(4.000000, 4.000000)">
                        <path d="M24.9385426,11.6383017 C24.9390101,10.5422573 24.4583737,9.50128535 23.6238712,8.79074767 C23.9419402,8.27192423 24.1093395,7.67480449 24.1072613,7.06625463 C24.1050792,5.38020836 22.8430383,3.96178271 21.1686819,3.76357408 C21.1881131,3.61835963 21.1978807,3.47200216 21.1977768,3.32548884 C21.202089,1.49318901 19.7202262,0.00436422676 17.8879264,5.19550805e-05 C16.8097546,-0.00249384386 15.7975657,0.519083209 15.1738969,1.39857881 C14.115468,-0.0951297524 12.0465647,-0.447956704 10.5528562,0.610472196 C10.2475681,0.826813151 9.98109052,1.09329076 9.76474956,1.39857881 C8.70044974,-0.0946102016 6.6272342,-0.4422936 5.13404519,0.621954269 C4.13261101,1.33571316 3.60776079,2.54455202 3.76996455,3.76357408 C2.09560817,3.96178271 0.833567312,5.38020836 0.831385198,7.06625463 C0.829306995,7.67480449 0.996706264,8.27192423 1.31477527,8.79074767 C-0.257645244,10.1307731 -0.446034366,12.4918198 0.89399107,14.0642403 C1.02283967,14.2154815 1.16358598,14.3561759 1.31477527,14.4850245 C0.996550399,15.0041077 0.82915113,15.6014872 0.831385198,16.2103488 C0.833463401,18.0459218 2.32093736,19.5333958 4.15651035,19.535474 L6.65035421,19.535474 L6.65035421,24.107521 L5.40343228,24.107521 C5.17389474,24.107521 4.98779164,24.2936241 4.98779164,24.5231617 C4.98779164,24.7526992 5.17389474,24.9388023 5.40343228,24.9388023 L19.5352142,24.9388023 C19.7647517,24.9388023 19.9508548,24.7526992 19.9508548,24.5231617 C19.9508548,24.2936241 19.7647517,24.107521 19.5352142,24.107521 L18.2882922,24.107521 L18.2882922,19.535474 L20.7821361,19.535474 C22.6177091,19.5333958 24.1051831,18.0459218 24.1072613,16.2103488 C24.1093395,15.6017989 23.9419402,15.0046792 23.6238712,14.4858558 C24.4583737,13.7753181 24.9389582,12.7342941 24.9385426,11.6383017 Z M4.15651035,18.7004519 C2.78120741,18.6991011 1.66609552,17.5856517 1.66266649,16.2103488 C1.66105588,15.6450775 1.85370532,15.0964319 2.20840265,14.6562684 C2.35164281,14.4769195 2.3223921,14.2153776 2.14304316,14.0720855 C2.13436666,14.0651235 2.12537843,14.0585252 2.11613043,14.0523426 C0.782911108,13.1553901 0.42920092,11.3475091 1.32610147,10.0142379 C1.53594804,9.70235151 1.80419213,9.43405547 2.11613043,9.22426086 C2.30638993,9.09587985 2.35657854,8.83750724 2.22814558,8.64724773 C2.22191097,8.63799973 2.21531268,8.62906346 2.20840265,8.620335 C1.85370532,8.18017156 1.66105588,7.63152591 1.66266649,7.06625463 C1.66401732,5.68949696 2.77975267,4.5737616 4.15651035,4.57241077 L4.26416128,4.57822974 C4.39856907,4.58493194 4.52757354,4.52471601 4.60872737,4.41737681 C4.69133595,4.31138845 4.71720958,4.1718371 4.67813936,4.04330023 C4.28878799,2.72218644 5.0441629,1.3355573 6.36532864,0.946205926 C7.53977324,0.60008118 8.79173481,1.15776701 9.32001407,2.26228007 C9.32001407,2.26643648 9.32001407,2.27059288 9.31710459,2.27474929 C9.26530537,2.43056258 9.225248,2.59006467 9.19740008,2.75190475 C9.19241239,2.77975267 9.18867163,2.80801624 9.18451522,2.83503288 C9.13479421,3.14187958 9.13100149,3.45438939 9.17329292,3.76232715 C7.49846895,3.9606397 6.23627222,5.37968881 6.23471357,7.06625463 C6.23263537,7.67480449 6.40003464,8.27192423 6.71810364,8.79074767 C6.71062211,8.79739792 6.7043875,8.80446381 6.69690597,8.81111406 L4.76209877,6.87630686 C4.59698552,6.71685672 4.33383304,6.72142876 4.1743829,6.88654201 C4.01882939,7.04760276 4.01882939,7.30296198 4.1743829,7.46402273 L6.13288161,9.42252145 C4.96789284,11.0020598 5.22351184,13.2136837 6.71810364,14.4858558 C6.55771831,14.7474496 6.43510432,15.030345 6.35400244,15.3262812 L4.86600893,13.8382876 C4.70089568,13.6787855 4.43779516,13.6833576 4.27829306,13.8484708 C4.12273955,14.0095316 4.12273955,14.2648908 4.27829306,14.4260035 L6.24385766,16.3915681 C6.24718279,16.4493422 6.24801407,16.5075319 6.25424868,16.564059 C6.25840509,16.6031292 6.26630226,16.6405369 6.27170559,16.6787758 C6.28251224,16.7556693 6.2933189,16.8321472 6.30952889,16.9073782 C6.31908862,16.9522674 6.33238912,16.995494 6.34361142,17.0395519 C6.36065269,17.1060544 6.37769395,17.1729725 6.39889162,17.2378125 C6.41385469,17.2839486 6.43172724,17.3280065 6.4487685,17.3733113 C6.47162874,17.4339949 6.49448897,17.495094 6.52108997,17.554115 C6.54104073,17.5990042 6.56265404,17.6426465 6.58468299,17.6862887 C6.61294656,17.7432315 6.6420414,17.799343 6.67321445,17.852545 C6.69773725,17.8941091 6.72392261,17.9356731 6.75052361,17.9772372 C6.78377486,18.0300235 6.81785739,18.081563 6.85401813,18.1318555 C6.88269733,18.1734196 6.91262346,18.2120741 6.94338087,18.2511444 C6.98120417,18.30019 7.02069003,18.3471574 7.06142281,18.3937091 C7.09425842,18.4311168 7.12750967,18.4681088 7.16159221,18.5038539 C7.20315627,18.5487431 7.24929238,18.5915541 7.29501285,18.6339494 C7.31787309,18.6555627 7.33907076,18.6796699 7.36276228,18.7004519 L4.15651035,18.7004519 Z M12.0536826,24.107521 L7.4816355,24.107521 L7.4816355,19.535474 L12.0536826,19.535474 L12.0536826,24.107521 Z M12.4693232,5.40369206 C12.2397857,5.40369206 12.0536826,5.58979516 12.0536826,5.8193327 L12.0536826,8.76456231 L10.1654271,6.87630686 C10.0003139,6.71685672 9.73716141,6.72142876 9.57771127,6.88654201 C9.42215776,7.04760276 9.42215776,7.30296198 9.57771127,7.46402273 L12.0536826,9.93999405 L12.0536826,15.6226329 L10.2693373,13.8382876 C10.1042241,13.6787855 9.84112353,13.6833576 9.68162143,13.8484708 C9.52606792,14.0095316 9.52606792,14.2648908 9.68162143,14.4260035 L12.0536826,16.7980647 L12.0536826,18.7041927 L9.55983872,18.7041927 C8.18308104,18.7028418 7.06734569,17.5871065 7.06599486,16.2103488 C7.06438425,15.6450775 7.25703369,15.0964319 7.61173102,14.6562684 C7.75497118,14.4769195 7.72572047,14.2153776 7.54637153,14.0720855 C7.53769503,14.0651235 7.52870681,14.0585252 7.5194588,14.0523426 C6.18623948,13.1553901 5.83252929,11.3475091 6.72942985,10.0142379 C6.93927642,9.70235151 7.2075205,9.43405547 7.5194588,9.22426086 C7.70971831,9.09587985 7.75990691,8.83750724 7.63147395,8.64724773 C7.62523935,8.63799973 7.61864105,8.62906346 7.61173102,8.620335 C7.25703369,8.18017156 7.06438425,7.63152591 7.06599486,7.06625463 C7.06734569,5.68949696 8.18308104,4.5737616 9.55983872,4.57241077 L9.66748965,4.57822974 C9.80205331,4.58571127 9.9313695,4.52533947 10.0120557,4.41737681 C10.0946643,4.31138845 10.120538,4.1718371 10.0814677,4.04330023 C10.0114323,3.81043756 9.97568719,3.56863861 9.97547937,3.32548884 C9.97568719,3.17206549 9.99033852,3.01900582 10.0191216,2.86828413 C10.0191216,2.86246516 10.0191216,2.85623055 10.0216155,2.85041158 C10.0517494,2.70036531 10.0952878,2.55333243 10.151711,2.41107942 C10.5269825,1.45889866 11.4458601,0.832684075 12.4693232,0.831644974 C13.4927864,0.832684075 14.4116639,1.45889866 14.7869355,2.41107942 C14.8435145,2.55426762 14.8870529,2.70228765 14.917031,2.85332107 C14.917031,2.85914004 14.917031,2.86537464 14.9195248,2.87119361 C14.9481521,3.02092816 14.9627515,3.17305263 14.9631671,3.32548884 C14.9629593,3.56863861 14.9272142,3.81043756 14.8571787,4.04330023 C14.8181085,4.1718371 14.8439821,4.31138845 14.9265907,4.41737681 C15.0075887,4.52492383 15.1366971,4.58519172 15.2711568,4.57822974 L15.3788077,4.57241077 C16.7555654,4.5737616 17.8713008,5.68949696 17.8726516,7.06625463 C17.8742622,7.63152591 17.6816128,8.18017156 17.3269154,8.620335 C17.1836753,8.79968394 17.212926,9.06122582 17.3922749,9.20451793 C17.4009514,9.21147991 17.4099397,9.2180782 17.4191877,9.22426086 C18.752407,10.1212134 19.1061172,11.9290943 18.2091647,13.2623656 C17.9993181,13.5742519 17.731074,13.842548 17.4191877,14.0523426 C17.2289282,14.1807236 17.1787395,14.4390962 17.3071725,14.6293557 C17.3134071,14.6386037 17.3200054,14.64754 17.3269154,14.6562684 C17.6816128,15.0964319 17.8742622,15.6450775 17.8726516,16.2103488 C17.8713008,17.5871065 16.7555654,18.7028418 15.3788077,18.7041927 L12.8849639,18.7041927 L12.8849639,13.0286197 C12.9159811,13.0132929 12.94492,12.9940176 12.9710015,12.9712613 L15.6726657,10.2695971 C15.8321678,10.1044838 15.8275957,9.8413833 15.6624825,9.68188121 C15.5014217,9.5263277 15.2460625,9.5263277 15.0849498,9.68188121 L12.8849639,11.8818671 L12.8849639,5.8193327 C12.8849639,5.5897432 12.6988608,5.40369206 12.4693232,5.40369206 Z M17.457011,24.107521 L12.8849639,24.107521 L12.8849639,19.535474 L17.457011,19.535474 L17.457011,24.107521 Z M22.7104489,14.6293557 C22.7166835,14.6386037 22.7232818,14.64754 22.7301919,14.6562684 C23.0848892,15.0964319 23.2775386,15.6450775 23.275928,16.2103488 C23.2745772,17.5871065 22.1588418,18.7028418 20.7820842,18.7041927 L17.5758842,18.7041927 C17.5995757,18.6834106 17.6207734,18.6593035 17.6436336,18.6376902 C17.6893541,18.5961261 17.7338276,18.5524838 17.7770543,18.5075946 C17.8111368,18.4718495 17.844388,18.4348575 17.8772237,18.3974499 C17.9187877,18.3508981 17.9574423,18.3039307 17.9952656,18.2548851 C18.026023,18.2158149 18.0559491,18.176329 18.0846283,18.1355963 C18.1207891,18.0853037 18.1548716,18.0337643 18.1881229,17.9809779 C18.2147239,17.9394139 18.2409092,17.8978498 18.265432,17.8562858 C18.2966051,17.8014212 18.3256999,17.7453097 18.3539635,17.6900295 C18.3755768,17.6463872 18.3955275,17.602745 18.4175565,17.5578558 C18.4441575,17.4988348 18.4670177,17.4377356 18.489878,17.3770521 C18.5069192,17.3317473 18.5247918,17.2876894 18.5397548,17.2415532 C18.5609525,17.1767133 18.5779938,17.1097952 18.595035,17.0432927 C18.6062573,16.9992347 18.6195578,16.9560081 18.6291176,16.9111189 C18.6453276,16.835888 18.6561342,16.7594101 18.6669409,16.6825166 C18.6723442,16.6442776 18.6802414,16.60687 18.6843978,16.5677998 C18.6973346,16.4490824 18.7038809,16.3297416 18.7039329,16.2103488 C18.7060111,15.6017989 18.5386118,15.0046792 18.2205428,14.4858558 C19.0050126,13.8157911 19.4772843,12.8509333 19.5252388,11.8203523 L21.075994,10.2695971 C21.2354961,10.1044838 21.2309241,9.8413833 21.0658109,9.68188121 C20.9047501,9.5263277 20.6493909,9.5263277 20.4882782,9.68188121 L19.4238225,10.7463369 C19.2377194,9.9850391 18.8167274,9.30157002 18.2205428,8.79282587 C18.5389755,8.27343093 18.7063748,7.67553186 18.7039329,7.06625463 C18.7017508,5.38020836 17.4397099,3.96178271 15.7653535,3.76357408 C15.8072293,3.45558436 15.803021,3.1430226 15.7528843,2.8362798 C15.7487279,2.80801624 15.7449871,2.77975267 15.7399995,2.75315167 C15.7121515,2.5913116 15.6720942,2.4318095 15.620295,2.27599621 C15.620295,2.27183981 15.620295,2.2676834 15.6173855,2.26352699 C16.2116996,1.02102124 17.7006803,0.495547558 18.943186,1.08986172 C20.0476991,1.61814098 20.605333,2.87015451 20.2592602,4.04454715 C20.22019,4.17308402 20.2460636,4.31263537 20.3286722,4.41862373 C20.409826,4.52596293 20.5388305,4.58617887 20.6732383,4.57947666 L20.7821361,4.57241077 C22.1588938,4.5737616 23.2746291,5.68949696 23.27598,7.06625463 C23.2775906,7.63152591 23.0849411,8.18017156 22.7302438,8.620335 C22.5870037,8.79968394 22.6162544,9.06122582 22.7956033,9.20451793 C22.8042798,9.21147991 22.813268,9.2180782 22.822516,9.22426086 C24.1557354,10.1212134 24.5094455,11.9290943 23.612493,13.2623656 C23.4026465,13.5742519 23.1344024,13.842548 22.822516,14.0523426 C22.6322046,14.1807236 22.5820679,14.4390962 22.7104489,14.6293557 Z" id="Shape"></path>
                    </g>
                </g>
            </g>
        </g>
    </g>
</svg>